HIERARCHY
ROOT Hip
{
  OFFSET 0.0 0.0 0.0
  CHANNELS 6 Xposition Yposition Zposition Xrotation Yrotation Zrotation
  JOINT LowerSpine
  {
    OFFSET 0.0 0.061367 -0.03653
    CHANNELS 3 Xrotation Yrotation Zrotation
    JOINT MiddleSpine
    {
      OFFSET 0.0 0.056002 0.002633
      CHANNELS 3 Xrotation Yrotation Zrotation
      JOINT Chest
      {
        OFFSET 0.0 0.069296 -0.013882
        CHANNELS 3 Xrotation Yrotation Zrotation
        JOINT Neck
        {
          OFFSET 0.0 0.156156 -0.002923
          CHANNELS 3 Xrotation Yrotation Zrotation
          JOINT Head
          {
            OFFSET 0.0 0.088183 0.023986
            CHANNELS 3 Xrotation Yrotation Zrotation
            End Site
            {
              OFFSET 1e-06 0.123215 0.003678
            }
          }
        }
        JOINT LClavicle
        {
          OFFSET 0.014189 0.150698 0.046467
          CHANNELS 3 Xrotation Yrotation Zrotation
          JOINT LShoulder
          {
            OFFSET 0.082893 0.021616 -0.034976
            CHANNELS 3 Xrotation Yrotation Zrotation
            JOINT LForearm
            {
              OFFSET 0.195645 -0.000695 -0.001695
              CHANNELS 3 Xrotation Yrotation Zrotation
              JOINT LHand
              {
                OFFSET 0.163209 0.000474 -0.000977
                CHANNELS 3 Xrotation Yrotation Zrotation
                End Site
                {
                  OFFSET 0.0 0.006864 0.0
                }
              }
            }
          }
        }
        JOINT RClavicle
        {
          OFFSET -0.014189 0.150698 0.046467
          CHANNELS 3 Xrotation Yrotation Zrotation
          JOINT RShoulder
          {
            OFFSET -0.082908 0.021619 -0.034982
            CHANNELS 3 Xrotation Yrotation Zrotation
            JOINT RForearm
            {
              OFFSET -0.195645 -0.000695 -0.001695
              CHANNELS 3 Xrotation Yrotation Zrotation
              JOINT RHand
              {
                OFFSET -0.163209 0.000474 -0.000977
                CHANNELS 3 Xrotation Yrotation Zrotation
                End Site
                {
                  OFFSET 0.0 0.006864 0.0
                }
              }
            }
          }
        }
      }
    }
  }
  JOINT RThigh
  {
    OFFSET -0.072558 0.02774 -0.005953
    CHANNELS 3 Xrotation Yrotation Zrotation
    JOINT RShin
    {
      OFFSET -0.005253 -0.285537 0.0
      CHANNELS 3 Xrotation Yrotation Zrotation
      JOINT RFoot
      {
        OFFSET 0.0 -0.28038 0.0
        CHANNELS 3 Xrotation Yrotation Zrotation
        JOINT RToe
        {
          OFFSET 0.0 -0.030816 0.064441
          CHANNELS 3 Xrotation Yrotation Zrotation
          End Site
          {
            OFFSET 0.0 0.0 0.043231
          }
        }
      }
    }
  }
  JOINT LThigh
  {
    OFFSET 0.072557 0.027741 -0.005953
    CHANNELS 3 Xrotation Yrotation Zrotation
    JOINT LShin
    {
      OFFSET 0.005253 -0.285539 0.0
      CHANNELS 3 Xrotation Yrotation Zrotation
      JOINT LFoot
      {
        OFFSET 0.0 -0.28038 0.0
        CHANNELS 3 Xrotation Yrotation Zrotation
        JOINT LToe
        {
          OFFSET 0.0 -0.030816 0.064441
          CHANNELS 3 Xrotation Yrotation Zrotation
          End Site
          {
            OFFSET 0.0 0.0 0.043231
          }
        }
      }
    }
  }
}
MOTION
Frames: 16
Frame Time: 0.03333333333333333
-0.024855 0.566097 -0.071632 6.314379 1.654547 0.943708 1.819248 -0.07745 -1.073498 0.508778 1.269943 -0.503362 -1.705238 3.242472 -2.266243 0.100787 0.339726 0.20323 0.029391 0.092797 -0.00297 0.317948 0.044947 -8.565893 14.861444 -28.273375 -49.847195 11.905669 -50.794071 1.401972 0.209991 0.259972 -0.209555 -0.441151 -1.219046 11.029552 0.332791 45.344189 66.322189 5.578746 36.63525 -1.031436 0.356682 -0.568667 0.031212 -22.124908 0.154449 -3.328026 20.751236 -2.778433 4.563621 -2.955148 0.497945 -0.070613 0.267526 0.773212 0.102534 -15.286129 8.089648 6.059394 14.399398 9.459508 -7.197438 -2.773903 0.022478 -0.036064 0.045754 -0.127866 0.033383 
-0.019592 0.55946 -0.067839 -0.428568 -0.870509 1.343392 2.380964 -0.111635 0.171063 -0.151634 1.496799 0.301759 -1.169134 5.267618 -3.619954 1.528902 0.41333 0.419195 0.057447 -0.395334 -0.044463 -1.365812 -2.066777 -9.084881 15.533558 -24.837915 -49.929485 12.449123 -50.378689 3.442046 0.158945 0.249918 -0.196615 -2.368612 1.083415 11.715207 4.214189 37.491585 63.283623 6.714622 40.153107 0.367857 -0.238432 -0.19151 -0.031527 -14.854847 1.126474 -1.914124 18.976864 -0.429076 1.703133 -2.127427 -0.207376 -0.545919 -0.128008 0.339798 0.146339 -3.387362 12.591444 3.489354 6.898724 8.523401 -6.509712 -3.659896 -0.179456 0.448082 0.134295 -0.246882 -0.086738 
-0.023623 0.557703 -0.072903 0.126726 -0.143158 1.086872 2.19949 -0.192681 0.231029 -0.221942 1.25872 0.407417 -2.539666 4.418931 -3.672522 1.607072 0.38086 0.4537 0.052861 -0.424112 -0.052208 -1.607883 -2.406749 -9.00092 16.985306 -24.47578 -50.506023 13.495362 -49.744465 3.432993 0.13388 0.223216 -0.164575 -2.481699 1.655648 12.014809 6.206678 37.772827 62.077785 7.93256 43.779633 1.779689 -0.320312 -0.111443 -0.035396 -15.478631 -0.756395 -1.286227 17.990175 -0.77918 1.42496 -1.523497 -0.132675 -0.485601 -0.144876 0.26632 0.141364 -5.335899 13.265306 4.368009 7.726677 8.807579 -7.145875 -3.193379 -0.249638 0.394974 0.143118 -0.223869 -0.082246 
-0.030642 0.556581 -0.07673 -0.238006 -0.115365 1.515551 2.173037 -0.250099 0.173701 -0.191956 1.135826 0.286084 -1.910221 4.130279 -3.78604 1.678134 0.380914 0.506574 0.041446 -0.369403 -0.045003 -1.656616 -2.371493 -9.04556 16.442627 -24.916269 -50.545712 13.143474 -49.648281 2.777071 0.098736 0.177091 -0.11123 -2.464418 2.047209 11.917024 5.036969 38.643242 62.250637 7.554863 45.177608 2.80682 -0.3033 -0.058171 -0.027871 -15.220302 -0.867928 -0.930751 17.623503 -0.535825 1.169365 -1.858183 0.009844 -0.36552 -0.124117 0.197169 0.12476 -5.622843 13.781687 4.930544 8.216368 9.495836 -7.232075 -3.032318 -0.169037 0.372559 0.112831 -0.161042 -0.058743 
-0.035668 0.55587 -0.079818 -0.199826 -0.226731 1.836406 2.209306 -0.279152 0.129635 -0.098923 1.11207 0.190301 -1.643136 4.210648 -3.815193 1.734999 0.396955 0.500821 0.037672 -0.331162 -0.041234 -1.589012 -2.264423 -9.003478 15.694881 -25.65873 -50.810589 12.43553 -48.728992 2.152911 0.086562 0.161445 -0.088932 -2.307819 1.930434 11.850096 2.924356 40.465034 63.154476 7.179962 41.66452 2.726446 -0.282582 -0.046832 -0.022334 -15.432521 -0.7432 -0.429143 18.446936 -0.354129 1.096168 -2.318399 0.035166 -0.350791 -0.117654 0.195179 0.124679 -6.484396 13.829062 5.524732 9.158654 9.822031 -7.435158 -2.915341 -0.097446 0.343365 0.103136 -0.136765 -0.047422 
-0.038352 0.554788 -0.082695 0.353423 -0.169534 1.796966 2.270566 -0.28796 0.084267 -0.015212 1.127828 0.142332 -1.470625 4.464687 -3.690134 1.735664 0.408044 0.481639 0.037638 -0.308052 -0.041667 -1.484735 -2.146936 -8.889244 14.914193 -26.448456 -51.0639 11.788737 -47.135719 1.852039 0.086287 0.161727 -0.084898 -2.155987 1.701342 11.758674 0.824484 42.153854 63.997684 6.947203 38.385376 2.492939 -0.260579 -0.05674 -0.019844 -16.051407 -0.572101 0.025052 19.741997 -0.299165 1.188359 -2.701089 0.021522 -0.367246 -0.120724 0.219294 0.127875 -7.978561 13.445021 6.169809 10.334358 9.755209 -7.541693 -2.887918 -0.051203 0.320972 0.103774 -0.134538 -0.044535 
-0.039671 0.554482 -0.085257 0.901456 -0.079361 1.748792 2.282797 -0.27339 0.091843 0.103813 1.166099 0.1091 -1.1333 4.696616 -3.724033 1.705293 0.421051 0.456732 0.040702 -0.309407 -0.045796 -1.421047 -2.100253 -8.837074 14.462898 -27.159595 -50.961044 11.45967 -46.000187 1.749607 0.090782 0.169969 -0.087163 -2.090995 1.583912 11.693176 -0.305555 43.022739 64.217194 6.889182 36.708485 2.318538 -0.255 -0.067998 -0.021402 -17.082808 -0.342516 0.425066 21.070404 -0.265208 1.184045 -3.042381 0.010994 -0.388779 -0.13267 0.241518 0.137154 -9.479376 12.857245 6.736349 11.552333 9.483316 -7.728677 -2.863889 -0.039435 0.311447 0.112645 -0.145431 -0.047626 
-0.039386 0.554622 -0.086307 1.226352 0.103451 1.681131 2.280495 -0.265548 0.101102 0.179467 1.202639 0.109147 -1.020709 4.883354 -3.624844 1.664667 0.423785 0.439296 0.041736 -0.310316 -0.048256 -1.384199 -2.068582 -8.851011 14.208046 -27.455694 -51.059502 11.186783 -45.494957 1.683651 0.094592 0.175562 -0.090123 -2.064821 1.518317 11.665875 -0.769346 43.268002 64.205658 6.743889 35.71254 2.16496 -0.247981 -0.078214 -0.022573 -17.683908 -0.212063 0.590553 22.007946 -0.28249 1.205126 -3.313533 0.003867 -0.410957 -0.136939 0.25531 0.142808 -10.362658 12.311107 6.962364 12.105765 9.101995 -7.756158 -2.857189 -0.055342 0.293241 0.117119 -0.15208 -0.049814 
-0.03866 0.554274 -0.087054 1.472023 0.348988 1.598258 2.287237 -0.265101 0.104781 0.208969 1.220539 0.120195 -1.015472 5.01744 -3.568357 1.633762 0.423379 0.434055 0.042266 -0.31344 -0.049103 -1.369947 -2.062289 -8.844383 14.091389 -27.55406 -51.098003 11.018641 -45.216244 1.66551 0.098058 0.180493 -0.094268 -2.06857 1.487349 11.665135 -1.023724 43.455124 64.227554 6.641611 34.844982 2.053403 -0.245515 -0.084115 -0.023802 -18.354778 -0.032181 0.653852 22.711781 -0.255341 1.225137 -3.450507 -0.016673 -0.43456 -0.136895 0.264786 0.146387 -10.993058 11.982387 7.050501 12.400488 8.835191 -7.786819 -2.90284 -0.073506 0.278602 0.120105 -0.157899 -0.052171 
-0.037651 0.553259 -0.087856 1.875056 0.609197 1.450649 2.295841 -0.270381 0.11058 0.222993 1.22685 0.133124 -1.111824 5.100079 -3.609132 1.60454 0.428459 0.433855 0.043729 -0.321812 -0.050035 -1.356294 -2.072099 -8.8063 14.069822 -27.674278 -50.947739 10.997221 -45.009697 1.673198 0.103036 0.188461 -0.101574 -2.081585 1.452104 11.670247 -1.176922 43.754219 64.261429 6.710426 33.885784 1.931515 -0.248599 -0.089534 -0.025685 -19.471802 0.193607 0.743412 23.56978 -0.203562 1.227047 -3.48174 -0.051412 -0.463912 -0.139148 0.275294 0.1508 -11.831822 11.796574 7.16828 12.900956 8.715901 -7.935035 -2.972633 -0.09374 0.269044 0.124066 -0.16586 -0.056 
-0.036491 0.551496 -0.089083 2.599465 0.845091 1.256922 2.283533 -0.275969 0.115184 0.218945 1.216129 0.130991 -1.342446 5.111818 -3.732163 1.55872 0.429509 0.431028 0.045582 -0.326814 -0.050419 -1.334652 -2.051088 -8.755273 14.11844 -27.8613 -50.654037 11.057409 -44.773197 1.663281 0.107813 0.196492 -0.10902 -2.08321 1.411752 11.683608 -1.21404 44.169289 64.248848 6.893648 32.87669 1.814174 -0.248767 -0.094872 -0.027255 -21.365082 0.480488 0.879038 24.906071 -0.128221 1.226912 -3.458305 -0.099818 -0.491269 -0.140458 0.285032 0.153364 -13.2206 11.63041 7.357618 13.858871 8.715053 -8.161936 -3.036369 -0.118137 0.253167 0.127191 -0.172975 -0.059135 
-0.035185 0.549328 -0.090685 4.055476 1.138428 0.987155 2.217311 -0.282172 0.118823 0.202396 1.180521 0.111777 -1.695441 5.065023 -3.936336 1.462721 0.424948 0.419713 0.047827 -0.325481 -0.050836 -1.273073 -1.97102 -8.735217 14.277282 -28.20451 -50.145988 11.165066 -44.452518 1.609712 0.112727 0.204913 -0.117282 -2.041524 1.348132 11.734314 -1.099968 44.737396 64.129425 7.037124 31.720041 1.716556 -0.241843 -0.102421 -0.028651 -24.397118 0.894535 1.034453 26.874979 -0.050358 1.243783 -3.497863 -0.159646 -0.516929 -0.141772 0.298215 0.155062 -15.729883 11.332904 7.644774 15.512838 8.752415 -8.426433 -3.114506 -0.142253 0.228813 0.130951 -0.179637 -0.061313 
-0.033984 0.546724 -0.093246 6.496973 1.4198 0.691431 2.101594 -0.286605 0.125272 0.173732 1.121963 0.082745 -2.197426 4.944826 -4.209386 1.326604 0.416565 0.403949 0.050387 -0.320637 -0.052211 -1.182304 -1.853718 -8.758882 14.571828 -28.722017 -49.426567 11.332078 -43.986092 1.523122 0.118019 0.213582 -0.125988 -1.972533 1.286723 11.816634 -0.780141 45.358875 63.871189 7.107922 30.470749 1.691607 -0.230395 -0.111251 -0.029995 -28.890924 1.425622 1.241669 29.494228 0.028966 1.266732 -3.66919 -0.23741 -0.546014 -0.143818 0.314775 0.156357 -19.803886 10.870308 8.04936 18.129595 8.818915 -8.708029 -3.216471 -0.149294 0.209134 0.134634 -0.187012 -0.063459 
-0.033127 0.543934 -0.096536 10.304048 1.848743 0.342902 1.911433 -0.293945 0.122865 0.124368 1.032582 0.02668 -2.963028 4.608928 -4.641529 1.139573 0.401046 0.387634 0.054021 -0.309125 -0.053572 -1.043457 -1.673472 -8.804736 15.186555 -29.411591 -48.313343 11.695954 -43.481007 1.438776 0.123831 0.222034 -0.135023 -1.848258 1.200843 11.976083 -0.033441 46.050682 63.398006 7.37646 29.189732 1.663555 -0.216471 -0.121366 -0.031568 -35.270828 1.908396 1.470903 32.854141 0.028487 1.320158 -3.804358 -0.335092 -0.574103 -0.147939 0.330665 0.156307 -26.014851 10.331828 8.612116 22.237324 8.998397 -9.042155 -3.271343 -0.152367 0.186965 0.139132 -0.193454 -0.065606 
-0.035458 0.540116 -0.102358 15.443097 3.027588 -0.075136 1.624548 -0.299508 0.110836 0.061303 0.92039 -0.048287 -3.603152 4.060851 -5.108294 0.89945 0.392605 0.373457 0.055798 -0.291719 -0.053063 -0.823204 -1.43335 -8.896468 16.096394 -30.29348 -46.613762 12.471043 -43.338001 1.301967 0.124682 0.225031 -0.136865 -1.660463 1.030515 12.254777 0.994632 46.750443 62.641537 7.695152 28.506077 1.778031 -0.198629 -0.125581 -0.032581 -43.968018 2.214146 1.714153 37.162651 -0.1044 1.348693 -3.898517 -0.466224 -0.616613 -0.146364 0.344069 0.156176 -34.864822 9.396343 9.315545 27.791468 9.135207 -9.357753 -3.1595 -0.150862 0.159922 0.141501 -0.191953 -0.065131 
-0.038574 0.534948 -0.110438 21.803148 4.096799 -0.606333 1.254052 -0.274642 0.152058 -0.019889 0.823645 -0.13328 -4.217923 3.41484 -5.736215 0.590739 0.381022 0.326391 0.057932 -0.272117 -0.053385 -0.555818 -1.13445 -9.145446 17.535254 -31.12631 -44.200714 13.584396 -43.880119 1.060321 0.124584 0.224317 -0.136016 -1.437951 0.753131 12.590433 2.633612 47.29792 61.538364 8.224918 28.283501 1.929474 -0.182499 -0.130558 -0.034693 -54.829567 2.666692 2.076334 42.53371 -0.2338 1.338956 -4.107837 -0.611611 -0.688884 -0.138079 0.35301 0.154836 -46.38205 7.926887 10.182814 35.127045 9.21031 -9.862981 -2.989233 -0.15598 0.136445 0.145471 -0.191546 -0.066758 
